<?xml version="1.0" encoding="iso-8859-1"?>
<!-- Generator: Adobe Illustrator 19.1.0, SVG Export Plug-In . SVG Version: 6.00 Build 0)  -->
<svg version="1.1" id="Capa_1" xmlns="http://www.w3.org/2000/svg" xmlns:xlink="http://www.w3.org/1999/xlink" x="0px" y="0px"
	 viewBox="0 0 540.12 540.12" style="enable-background:new 0 0 540.12 540.12;" xml:space="preserve">
<g>
	<path d="M505.205,119.399L398.557,12.752c-17.012-17.012-46.663-16.994-63.657,0L42.124,305.545
		c-6.836,6.851-11.196,15.51-12.642,24.885l-0.032-0.005c0,0-5.077,31.342-6.949,41.766c-2.646,14.762,1.998,29.795,12.404,40.2
		L149.473,526.96c8.786,8.767,20.307,13.16,31.829,13.16c11.54,0,23.061-4.393,31.829-13.16l281.707-281.705
		c6.661-6.661,11.018-15.123,12.566-24.43l10.441-62.631l-0.034-0.006C519.939,144.469,515.743,129.948,505.205,119.399z
		 M347.61,25.479c5.275-5.257,12.188-7.885,19.101-7.885c6.931,0,13.844,2.629,19.1,7.885l106.666,106.648
		c10.514,10.532,10.514,27.67,0,38.202l-92.454,92.449L255.178,117.917L347.61,25.479z M242.451,130.645l144.852,144.852
		L186.955,475.833c-3.511,3.528-9.235,3.492-12.728,0L54.852,356.458c-5.095-5.095-7.903-11.882-7.903-19.101
		s2.808-14.006,7.903-19.101L242.451,130.645z M200.404,514.232c-10.532,10.531-27.67,10.531-38.202,0L47.633,399.663
		c-6.265-6.247-9.019-15.321-7.417-24.304c0.317-1.779,0.73-4.172,1.194-6.906c0.239,0.25,0.469,0.505,0.714,0.75l119.375,119.375
		c5.257,5.257,12.17,7.885,19.083,7.885c6.913,0,13.844-2.628,19.101-7.903l191.349-191.338v26.382L200.404,514.232z
		 M482.109,232.527l-73.092,73.092v-26.381l84.489-84.484l-3.854,23.119C488.716,223.454,486.124,228.512,482.109,232.527z"/>
</g>
</svg>
