<svg  viewBox="0 0 60 60" xmlns="http://www.w3.org/2000/svg"><g id="Page-1"><g id="017---Searching-Online-Maps" ><path id="Shape" d="m57 0h-54c-1.65685425 0-3 1.34314575-3 3v54c0 1.6568542 1.34314575 3 3 3h43c.5522847 0 1-.4477153 1-1s-.4477153-1-1-1h-5.746l-10.011-10.02c3.0552037-.0424635 6.0492755-.8622197 8.7-2.382l3.368 3.369c-.1551224.9479713.1548062 1.9127311.833 2.593l7.566 7.566c1.1714996 1.1711458 3.0705004 1.1711458 4.242 0l3.172-3.171c.562719-.5626237.8788593-1.3257625.8788593-2.1215s-.3161403-1.5588763-.8788593-2.1215l-7.564-7.566c-.6825013-.6569103-1.6332438-.9563072-2.569-.809l-3.155-3.155c2.0671975-2.9924763 3.1711074-6.544945 3.164-10.182-.0042328-1.3356537-.1561561-2.6667434-.453-3.969l10.453 10.453v11.516c0 .5522847.4477153 1 1 1s1-.4477153 1-1v-45c0-1.65685425-1.3431458-3-3-3zm1 10v13.416l-8.226-8.226 5.19-5.19zm-56-7c0-.55228475.44771525-1 1-1h54c.5522847 0 1 .44771525 1 1v5h-56zm15.272 14.272c-1.0823401 1.0901938-2.0215504 2.3136875-2.795 3.641l-10.913-10.913h38.324l-3.888 3.893c-6.9193071-3.4334146-15.2573516-2.0741782-20.728 3.379zm-15.272 25.193 10.164-10.156c.250374 1.9774948.8311196 3.8988905 1.718 5.684l-11.882 11.883zm10.018-12.838-10.018 10.01v-7.412l6.069-6.069c.39038194-.3904999.39038194-1.0235001 0-1.414l-.01-.007-6.059-6.059v-7.412l11.516 11.516c-.9451299 2.1614895-1.4541976 4.4883163-1.498 6.847zm-10.018-.227v-7.9l3.947 3.95zm15.08 18.5 10.106 10.1h-20.22zm12.934 10.1-12.227-12.227c-.3904999-.3903819-1.0235001-.3903819-1.414 0l-12.237 12.227h-1.136c-.55228475 0-1-.4477153-1-1v-4.3l12.905-12.9c.6853099 1.0557624 1.4785782 2.0373775 2.367 2.929 2.6881275 2.6864098 6.1620205 4.4468239 9.918 5.026l10.237 10.245zm26.7-4.874c.187777.1875683.2932867.4420908.2932867.7075s-.1055097.5199317-.2932867.7075l-3.173 3.171c-.3953495.3775255-1.0176505.3775255-1.413 0l-7.568-7.566c-.187777-.1875683-.2932867-.4420908-.2932867-.7075s.1055097-.5199317.2932867-.7075l3.172-3.172c.3904999-.3903819 1.0235001-.3903819 1.414 0zm-10.569-8.808-2.827 2.826-2.663-2.663c.7342281-.5312079 1.4272065-1.1172142 2.073-1.753.307-.307.587-.633.868-.958zm-4.832-3c-4.8819527 4.8652107-12.3337778 6.050837-18.484604 2.9410021-6.1508263-3.1098348-9.6136655-9.8138748-8.5897361-16.6296877s6.303735-12.2064584 13.0968073-13.3717508 13.5675987 2.1575375 16.8045328 8.2424364c.006.014.013.026.019.039 3.2644838 6.2064161 2.1111614 13.8148583-2.846 18.775zm4.595-19.75c-1.435733-2.6989019-3.53501-4.9878021-6.1-6.651l4.907-4.917h7.421l-4.483 4.483c-.3903819.3904999-.3903819 1.0235001 0 1.414l10.347 10.347v7.412z"/><circle id="Oval" cx="6" cy="5" r="1"/><circle id="Oval" cx="10" cy="5" r="1"/><circle id="Oval" cx="14" cy="5" r="1"/><path id="Shape" d="m39.9 20.106c-1.0169143-1.0285894-2.1921617-1.8874889-3.481-2.544-5.6256127-2.903681-12.4997804-1.6707886-16.7656548 3.0069456-4.2658744 4.6777341-4.8617675 11.6361187-1.4533452 16.9710544.546926.8524851 1.1839197 1.6436984 1.9 2.36 2.6237848 2.6272315 6.18447 4.103485 9.8975 4.103485s7.2737152-1.4762535 9.8975-4.103485c.722412-.7202852 1.3648132-1.5165811 1.916-2.375.118-.191.233-.383.334-.564 3.1457455-5.4802653 2.2255131-12.3891815-2.245-16.855zm2.071 10.725c-.1250115 1.809866-.6601861 3.567564-1.565 5.14-.094.168-.2.336-.289.487-.4709456.731241-1.0194567 1.4095039-1.636 2.023-2.2486482 2.2516775-5.3002884 3.5169117-8.4825 3.5169117s-6.2338518-1.2652342-8.4825-3.5169117c-3.1027908-3.081473-4.2711875-7.6134709-3.045-11.811.9872238-3.4566956 3.4758699-6.286599 6.7780517-7.7074967 3.3021818-1.4208978 7.0681482-1.2822951 10.2569483.3774967 1.102679.5612898 2.1078596 1.2963513 2.977 2.177 2.4588599 2.4516678 3.7319558 5.8502391 3.489 9.314z"/><path id="Shape" d="m30 20c-4.4539075.0043883-8.3680507 2.9538584-9.6 7.234-.1106151.3475904-.0231931.7278364.2281194.9922165.2513125.26438.6266429.3709481.9793895.2780794.3527467-.0928687.6269435-.3704398.7154911-.7242959.9896395-3.4189944 4.1176638-5.7740785 7.677-5.78.5522847 0 1-.4477153 1-1s-.4477153-1-1-1z"/></g></g></svg>