<svg id="Layer_1" enable-background="new 0 0 511.995 511.995" height="512" viewBox="0 0 511.995 511.995" width="512" xmlns="http://www.w3.org/2000/svg"><g><g clip-rule="evenodd" fill-rule="evenodd"><path d="m204.378 351.744v-94.691-103.526-94.691c-137.232 48.723-137.147 244.239 0 292.908z" fill="#ff5a58"/><path d="m204.378 153.527h198.217c-26.026-78.126-118.418-124.261-198.217-94.691z" fill="#88df8e"/><path d="m402.595 153.527h-198.217v103.526h198.217c11.705-32.045 11.705-71.48 0-103.526z" fill="#fff"/><path d="m402.595 257.053h-198.217v94.691c79.812 29.573 172.191-16.571 198.217-94.691z" fill="#8690af"/><path d="m402.595 257.053c-26.025 78.126-118.418 124.261-198.217 94.691-137.232-48.723-137.147-244.239 0-292.908 79.812-29.573 172.192 16.571 198.217 94.691 11.705 32.046 11.705 71.481 0 103.526zm-341.744-50.208c0 128.344 149.391 295.15 195.29 295.15 45.9 0 195.29-166.807 195.29-295.15 0-106.272-88.25-197.251-195.29-196.843-107.04-.409-195.29 90.57-195.29 196.843z" fill="#ffc144"/></g><g><path d="m399.64 59.983c-39.032-38.886-90.013-60.187-143.461-59.982-38.069-.137-75.523 10.809-108.233 31.676-10.9 7.581-.703 23.55 10.757 16.861 29.276-18.677 62.708-28.538 96.802-28.538h1.357c98.58-2.045 186.232 88.866 184.566 186.846.001 53.753-28.591 122.905-78.446 189.723-25.876 34.245-74.122 89.696-106.842 95.427-32.671-5.694-80.972-61.183-106.843-95.426-72.141-102.018-106.892-190.699-50.268-287.496 2.912-4.693 1.468-10.858-3.224-13.77-4.694-2.912-10.857-1.469-13.77 3.224-61.257 104.947-26.146 200.745 51.231 310.001 37.184 49.832 91.494 103.466 122.875 103.466s85.69-53.634 122.872-103.466c88.969-120.749 119.822-243.958 20.627-348.546z"/><path d="m256.141 370.58c91.141 0 165.291-74.149 165.291-165.29-9.08-219.279-321.535-219.216-330.582.001.001 91.14 74.15 165.289 165.291 165.289zm145.29-165.29c0 14.512-2.149 28.53-6.127 41.763h-180.926v-83.526h180.926c3.979 13.233 6.127 27.251 6.127 41.763zm-145.29 145.29c-14.512 0-28.53-2.149-41.763-6.127v-77.4h173.252c-23.258 49.314-73.449 83.527-131.489 83.527zm131.488-207.053h-173.251v-77.4c68.023-21.698 145.212 14.834 173.251 77.4zm-193.251-69.725v262.976c-110.829-52.006-110.765-211.017 0-262.976z"/><path d="m118.347 78.425c2.561 0 5.122-.978 7.075-2.931 3.905-3.905 3.905-10.237 0-14.142s-10.236-3.905-14.142 0l-.005.005c-6.314 6.217-1.67 17.164 7.072 17.068z"/></g></g></svg>